<?xml version="1.0" encoding="UTF-8" standalone="no"?>
<svg
   xmlns:dc="http://purl.org/dc/elements/1.1/"
   xmlns:cc="http://creativecommons.org/ns#"
   xmlns:rdf="http://www.w3.org/1999/02/22-rdf-syntax-ns#"
   xmlns:svg="http://www.w3.org/2000/svg"
   xmlns="http://www.w3.org/2000/svg"
   id="svg8"
   version="1.1"
   viewBox="0 0 145 45"
   height="45mm"
   width="145mm">
  <defs
     id="defs2" />
  <metadata
     id="metadata5">
    <rdf:RDF>
      <cc:Work
         rdf:about="">
        <dc:format>image/svg+xml</dc:format>
        <dc:type
           rdf:resource="http://purl.org/dc/dcmitype/StillImage" />
        <dc:title></dc:title>
      </cc:Work>
    </rdf:RDF>
  </metadata>
  <g
     transform="translate(-27.317794,-116.09229)"
     style="display:inline"
     id="layer1">
    <g
       transform="translate(-2.803039,-22.57646)"
       id="g3740">
      <path
         style="display:inline;fill:#009d6d;fill-opacity:1;stroke-width:0.26458335"
         d="m 63.320833,151.56875 h 9.9 v 10 l -19.8,19.7 h -19.6 z"
         id="path3736" />
      <path
         style="display:inline;fill:#000000;stroke-width:0.26458335"
         d="m 31.620833,139.16875 h 44.2 v 44 h -44.2 z m 43.4,0.8 h -42.6 v 42.4 h 42.6 z m -27.5,27.7 -13.8,13.6 v -39.9 h 13.8 m -0.8,0.8 h -12.2 l 0.07016,38.24275 12.176614,-12.00243 m 36.235964,1.29734 v -5.18864 l 2.937746,0.10055 c 2.829925,0.0969 2.961015,0.12761 3.571875,0.83777 0.897091,1.04294 0.829823,2.14023 -0.193966,3.16402 -0.455451,0.45545 -0.695169,0.8724 -0.532707,0.92655 0.802992,0.26767 1.405628,1.07384 1.537462,2.05674 0.119703,0.89246 0.02695,1.20685 -0.562843,1.90778 -0.869987,1.03392 -2.050037,1.38049 -4.707046,1.3824 l -2.050521,0.001 z m 4.407218,3.45132 c 0.547693,-0.5477 0.647544,-0.84189 0.516342,-1.52136 -0.201843,-1.04531 -1.036992,-1.7684 -2.042454,-1.7684 h -0.764444 v 1.98438 1.98437 h 0.805775 c 0.512268,0 1.053108,-0.24733 1.484776,-0.67899 z m -0.619512,-4.3877 c 0.746133,-0.39273 0.965753,-0.73821 0.970744,-1.52706 0.0059,-0.93651 -0.727896,-1.60833 -1.756749,-1.60833 h -0.885039 v 1.71979 c 0,1.56165 0.05026,1.71979 0.54656,1.71979 0.300609,0 0.806625,-0.13688 1.124479,-0.30419 z m 5.20698,5.7943 c -5.3e-4,-0.1819 0.793239,-2.50362 1.764157,-5.15938 2.369471,-6.48123 2.317295,-6.48165 4.677365,0.0382 0.968941,2.67675 1.761711,4.99847 1.761711,5.15937 0,0.16875 -0.486107,0.29255 -1.148735,0.29255 h -1.14874 l -0.480655,-1.5875 -0.480656,-1.5875 h -1.399108 -1.399103 l -0.578832,1.5875 c -0.42526,1.16631 -0.709822,1.5875 -1.072547,1.5875 -0.271544,0 -0.494231,-0.14883 -0.494863,-0.33073 z m 4.47856,-3.96875 c -0.01127,-0.1819 -0.229172,-0.92382 -0.484209,-1.64871 l -0.463701,-1.31798 -0.556776,1.64871 -0.556776,1.64871 h 1.040982 c 0.667335,0 1.033624,-0.11871 1.02048,-0.33073 z m 6.899673,2.1784 c 0,-2.0429 -0.0536,-2.22801 -1.45521,-5.02267 -0.80036,-1.59589 -1.45521,-2.96312 -1.45521,-3.0383 0,-0.0752 0.51695,-0.1367 1.14877,-0.1367 h 1.14878 l 1.01582,2.27975 1.01582,2.27976 1.14554,-2.27976 c 0.97934,-1.94898 1.24143,-2.27975 1.80637,-2.27975 0.65634,0 0.65096,0.0197 -0.79661,2.90601 -1.42526,2.84191 -1.4574,2.9557 -1.4574,5.15937 v 2.2533 h -1.05834 -1.05834 z m 6.87916,-3.06907 v -5.19015 l 2.67789,0.10756 c 2.53518,0.10183 2.71144,0.14655 3.30729,0.83928 0.4402,0.51175 0.6294,1.05592 0.6294,1.8102 0,0.89619 -0.16155,1.23084 -0.95574,1.97987 l -0.95575,0.90138 1.35262,2.12509 c 0.74394,1.1688 1.35262,2.23576 1.35262,2.371 0,0.13526 -0.51448,0.24592 -1.14328,0.24592 h -1.14329 l -1.26189,-2.24813 c -0.69404,-1.23648 -1.37019,-2.31507 -1.50255,-2.39687 -0.13772,-0.0851 -0.24066,0.87646 -0.24066,2.24813 v 2.39687 h -1.05833 -1.05833 z m 4.08655,-0.71967 c 0.33935,-0.24814 0.48352,-0.69495 0.48352,-1.49852 0,-1.30114 -0.50874,-1.85208 -1.71023,-1.85208 h -0.74318 v 1.85208 1.85209 h 0.74318 c 0.40875,0 0.96077,-0.15911 1.22671,-0.35357 z m 5.43845,0.75939 v -5.16832 h 2.77812 c 2.60174,0 2.77813,0.0336 2.77813,0.52916 0,0.47037 -0.17639,0.52917 -1.5875,0.52917 h -1.5875 v 1.5875 1.5875 h 1.5875 c 1.41111,0 1.5875,0.0588 1.5875,0.52917 0,0.47037 -0.17639,0.52916 -1.5875,0.52916 h -1.5875 v 1.83946 1.83946 l 1.65364,0.0788 c 1.451,0.0691 1.65365,0.14362 1.65365,0.60794 0,0.49169 -0.20142,0.53448 -2.84427,0.60426 l -2.84427,0.0751 z m 10.37116,4.70783 c -1.48798,-0.73332 -1.75167,-1.58097 -1.8583,-5.97355 l -0.0947,-3.9026 h 1.21489 1.2149 v 3.69171 c 0,2.18023 0.12238,3.96032 0.2989,4.34775 0.37114,0.81455 1.50483,1.30958 2.45374,1.07142 1.28347,-0.32213 1.52204,-1.07082 1.67921,-5.26976 0.13516,-3.61081 0.17537,-3.84112 0.67057,-3.84112 0.50754,0 0.52195,0.13773 0.39438,3.77031 -0.15027,4.27878 -0.49478,5.48041 -1.75865,6.13399 -1.03401,0.5347 -3.10083,0.5209 -4.21491,-0.0282 z m 10.00176,-4.02485 v -4.49939 l -1.25677,-0.0806 c -1.05351,-0.0676 -1.25678,-0.16623 -1.25678,-0.60981 0,-0.49898 0.20105,-0.53338 3.52516,-0.60312 l 3.52515,-0.074 -0.0856,0.60312 c -0.0714,0.50326 -0.27072,0.61655 -1.20372,0.68418 l -1.11815,0.0811 -0.0725,4.41687 -0.0725,4.41686 -0.99219,0.0821 -0.99218,0.0821 z m 6.35,-0.69193 v -5.15937 h 1.05833 1.05833 v 2.11666 2.11667 h 1.7198 1.71979 v -2.11667 -2.11666 h 1.05833 1.05833 v 5.15937 5.15938 h -1.05833 -1.05833 v -2.51355 -2.51354 h -1.71979 -1.7198 v 2.51354 2.51355 h -1.05833 -1.05833 z m -61.358557,-8.13693 c -1.760763,-0.6447 -1.998639,-1.31548 -2.093926,-5.90462 l -0.08477,-4.08267 h 1.07696 1.076958 l 0.0016,3.24115 c 0.0021,4.83208 0.395576,5.75469 2.453664,5.75469 1.674887,0 1.897878,-0.56329 2.000899,-5.05436 0.08408,-3.67036 0.125031,-3.94148 0.595201,-3.94148 0.473305,0 0.50364,0.22764 0.48477,3.63802 -0.02212,3.99986 -0.290193,5.17084 -1.367915,5.97547 -0.84805,0.63317 -2.923643,0.82041 -4.143425,0.3738 z m 53.090327,0.0239 c -0.51973,-0.18982 -0.72761,-0.44842 -0.72761,-0.90515 0,-0.73361 0.14227,-0.76621 1.05834,-0.24254 1.55323,0.88791 3.68781,0.099 3.35204,-1.23882 -0.11777,-0.46923 -0.63528,-0.91606 -1.74763,-1.50894 -2.60896,-1.39056 -3.277,-2.85619 -2.14675,-4.70983 0.67484,-1.10676 1.46464,-1.50437 2.94885,-1.48456 1.47538,0.0197 2.35599,0.44814 2.35599,1.14626 0,0.61183 -0.16886,0.63145 -1.05834,0.12298 -1.46454,-0.83721 -2.7624,-0.29583 -2.5988,1.08404 0.0677,0.5712 0.41191,0.8983 1.67276,1.5897 1.73654,0.95226 2.51054,1.92227 2.51116,3.14709 0.001,2.39496 -2.95526,3.97303 -5.62001,2.99977 z m -44.383858,-4.9841 v -5.02709 h 0.626793 c 0.478465,0 1.24546,0.748 3.241146,3.16089 l 2.614359,3.16089 0.0743,-3.16089 c 0.0692,-2.94288 0.11022,-3.16089 0.59531,-3.16089 0.50002,0 0.52102,0.20258 0.52102,5.02709 v 5.02708 h -0.59762 c -0.44718,0 -1.22978,-0.79674 -3.108854,-3.16502 l -2.511234,-3.16502 -0.07429,3.16502 -0.07429,3.16502 h -0.653314 -0.653315 z m 11.641668,0 v -5.02709 h 1.05833 1.05833 v 5.02709 5.02708 h -1.05833 -1.05833 z m 7.37523,4.29948 c -0.6692,-1.71098 -3.1419,-8.85857 -3.1419,-9.082 0,-0.13451 0.51834,-0.24457 1.15187,-0.24457 h 1.15187 l 0.98998,3.10886 c 0.5445,1.70987 1.0785,3.20274 1.18667,3.3175 0.10818,0.11475 0.70512,-1.28423 1.32654,-3.10886 1.01936,-2.99309 1.19102,-3.3175 1.75548,-3.3175 0.62177,0 0.6165,0.0258 -0.8513,4.16719 -0.81232,2.29195 -1.60304,4.55414 -1.75717,5.02708 -0.36973,1.13455 -1.39087,1.20911 -1.81204,0.1323 z m 6.91227,-4.29948 v -5.02709 h 2.77812 c 2.60174,0 2.77813,0.0336 2.77813,0.52917 0,0.47037 -0.17639,0.52917 -1.5875,0.52917 h -1.5875 v 1.4552 1.45521 h 1.5875 c 1.41111,0 1.5875,0.0588 1.5875,0.52917 0,0.47037 -0.17639,0.52917 -1.5875,0.52917 h -1.5875 v 1.98437 1.98438 h 1.71979 c 1.5434,0 1.71979,0.0543 1.71979,0.52916 0,0.4971 -0.17639,0.52917 -2.91042,0.52917 h -2.91041 z m 8.46667,-0.0241 v -5.05117 l 2.80151,0.0902 c 2.69137,0.0867 2.82661,0.11942 3.43959,0.83259 0.86036,1.00099 0.84236,2.28154 -0.0469,3.33839 -0.37675,0.44772 -0.853,0.81405 -1.05834,0.81405 -0.20534,0 -0.37335,0.0627 -0.37335,0.13931 0,0.0766 0.65994,1.17795 1.46653,2.4474 l 1.46654,2.30808 -0.9652,0.0838 c -0.53085,0.0461 -1.10779,0.0291 -1.28207,-0.0378 -0.17429,-0.0669 -0.87773,-1.08684 -1.56321,-2.26659 -0.68548,-1.17974 -1.3638,-2.14499 -1.50738,-2.14499 -0.1512,0 -0.26105,0.94633 -0.26105,2.24896 v 2.24896 h -1.05833 -1.05833 v -5.05117 z m 4.17446,-0.65238 c 0.43549,-0.30503 0.58804,-0.67762 0.58804,-1.4363 0,-1.26893 -0.54996,-1.85598 -1.7387,-1.85598 h -0.90714 v 1.85208 c 0,1.84851 0.001,1.85208 0.73488,1.85208 0.40419,0 0.9995,-0.18534 1.32292,-0.41187 z m 14.08179,0.67647 v -5.02709 h 1.05833 1.05833 v 5.02709 5.02708 h -1.05833 -1.05833 z m 6.35,0.52916 v -4.49791 h -1.19063 c -1.01423,0 -1.19062,-0.0784 -1.19062,-0.52917 0,-0.50203 0.17639,-0.52917 3.43958,-0.52917 3.26319,0 3.43958,0.0271 3.43958,0.52917 0,0.45077 -0.17639,0.52917 -1.19062,0.52917 h -1.19063 v 4.49791 4.49792 h -1.05833 -1.05833 z m 5.58613,2.31511 c 0.44568,-1.20055 1.20476,-3.25438 1.68685,-4.56407 0.48209,-1.30968 0.96062,-2.5896 1.06341,-2.84427 0.10279,-0.25466 0.45294,-0.46302 0.77812,-0.46302 0.52665,0 0.78369,0.53168 2.35294,4.86683 0.96895,2.67676 1.76171,4.94547 1.76171,5.04158 0,0.0961 -0.55632,0.13846 -1.23628,0.0941 l -1.23629,-0.0806 -0.38846,-1.40116 -0.38846,-1.40115 -1.48209,0.0782 -1.48208,0.0782 -0.49819,1.38907 c -0.40893,1.14021 -0.60956,1.38906 -1.11984,1.38906 h -0.62166 z m 3.78661,-2.38125 c -0.10335,-0.32742 -0.33671,-1.01203 -0.51856,-1.52136 -0.35261,-0.98757 -0.34418,-0.99568 -1.03283,0.99219 l -0.38955,1.12448 h 1.06443 c 0.98314,0 1.05008,-0.0455 0.87651,-0.59531 z m 6.50226,0.0661 v -4.49791 h -1.19063 c -1.01423,0 -1.19062,-0.0784 -1.19062,-0.52917 0,-0.50203 0.17639,-0.52917 3.43958,-0.52917 3.2632,0 3.43958,0.0271 3.43958,0.52917 0,0.45077 -0.17638,0.52917 -1.19062,0.52917 h -1.19063 v 4.49791 4.49792 h -1.05833 -1.05833 z m -9.72344,-4.67314 c -0.48915,-0.19738 -0.40132,-1.34648 0.12546,-1.64127 0.97113,-0.54348 1.87059,0.7068 1.07839,1.499 -0.33082,0.33082 -0.64466,0.36791 -1.20385,0.14227 z m 4.44231,-0.20895 c -0.17536,-0.2113 -0.24145,-0.62802 -0.14686,-0.92604 0.23985,-0.75571 1.62029,-0.75571 1.86014,0 0.20286,0.63913 -0.27352,1.31022 -0.93007,1.31022 -0.2554,0 -0.60785,-0.17288 -0.78321,-0.38418 z"
         id="path21" />
    </g>
  </g>
</svg>
